<svg width="177" height="49" viewBox="0 0 177 49" fill="none" xmlns="http://www.w3.org/2000/svg">
<path d="M7.65445 0.7003C9.68212 0.7003 11.4609 1.09662 12.9909 1.88925C14.5393 2.68188 15.7283 3.81553 16.5578 5.2902C17.4057 6.74643 17.8297 8.4423 17.8297 10.3778C17.8297 12.3133 17.4057 14.0092 16.5578 15.4654C15.7283 16.9032 14.5393 18.0184 12.9909 18.811C11.4609 19.6037 9.68212 20 7.65445 20H0.90785V0.7003H7.65445ZM7.5162 16.7096C9.54387 16.7096 11.1107 16.1566 12.2167 15.0506C13.3227 13.9446 13.8757 12.387 13.8757 10.3778C13.8757 8.36857 13.3227 6.80173 12.2167 5.6773C11.1107 4.53443 9.54387 3.963 7.5162 3.963H4.77885V16.7096H7.5162ZM24.5983 7.0598C25.096 6.24873 25.7412 5.61278 26.5338 5.15195C27.3449 4.69112 28.2665 4.4607 29.2988 4.4607V8.52525H28.2757C27.0591 8.52525 26.1375 8.81097 25.5107 9.3824C24.9024 9.95383 24.5983 10.9492 24.5983 12.3686V20H20.7273V4.6819H24.5983V7.0598ZM46.5606 4.6819L37.0766 27.2443H32.9568L36.2748 19.6129L30.1365 4.6819H34.4775L38.4315 15.3824L42.4407 4.6819H46.5606ZM62.8871 12.0091C62.8871 12.5621 62.8502 13.0598 62.7765 13.5022H51.5782C51.6704 14.6082 52.0575 15.4746 52.7395 16.1013C53.4215 16.7281 54.2603 17.0414 55.2557 17.0414C56.6935 17.0414 57.7165 16.4239 58.3248 15.1889H62.5C62.0576 16.6636 61.2096 17.8802 59.9562 18.8387C58.7027 19.7788 57.1635 20.2489 55.3386 20.2489C53.8639 20.2489 52.5367 19.9263 51.357 19.2811C50.1957 18.6175 49.2833 17.6866 48.6197 16.4884C47.9745 15.2903 47.6519 13.9078 47.6519 12.3409C47.6519 10.7557 47.9745 9.36397 48.6197 8.1658C49.2648 6.96763 50.1681 6.04597 51.3294 5.4008C52.4907 4.75563 53.8271 4.43305 55.3386 4.43305C56.7948 4.43305 58.0944 4.74642 59.2373 5.37315C60.3986 5.99988 61.2926 6.8939 61.9193 8.0552C62.5645 9.19807 62.8871 10.5161 62.8871 12.0091ZM58.8778 10.9031C58.8594 9.90775 58.4999 9.11512 57.7995 8.52525C57.099 7.91695 56.2418 7.6128 55.228 7.6128C54.2695 7.6128 53.4584 7.90773 52.7948 8.4976C52.1496 9.06903 51.7533 9.87088 51.6059 10.9031H58.8778ZM71.5743 20.2489C70.3209 20.2489 69.1964 20.0277 68.201 19.5852C67.2056 19.1244 66.413 18.5069 65.8231 17.7327C65.2517 16.9585 64.9383 16.1013 64.883 15.1612H68.7817C68.8554 15.7511 69.1411 16.2396 69.6388 16.6267C70.155 17.0138 70.7909 17.2073 71.5467 17.2073C72.284 17.2073 72.8555 17.0599 73.261 16.7649C73.685 16.47 73.8969 16.0921 73.8969 15.6313C73.8969 15.1336 73.6389 14.7649 73.1227 14.5253C72.625 14.2672 71.8232 13.9907 70.7172 13.6958C69.5743 13.4193 68.6342 13.1336 67.8969 12.8387C67.178 12.5437 66.5513 12.0921 66.0167 11.4838C65.5006 10.8755 65.2425 10.0552 65.2425 9.02295C65.2425 8.17502 65.4821 7.40082 65.9614 6.70035C66.4591 5.99988 67.1596 5.44688 68.0628 5.04135C68.9845 4.63582 70.0628 4.43305 71.2978 4.43305C73.1227 4.43305 74.579 4.89388 75.6665 5.81555C76.7541 6.71878 77.3532 7.9446 77.4638 9.493H73.7587C73.7034 8.8847 73.4453 8.40543 72.9845 8.0552C72.5421 7.68653 71.943 7.5022 71.1872 7.5022C70.4868 7.5022 69.943 7.63123 69.5559 7.8893C69.1872 8.14737 69.0029 8.50682 69.0029 8.96765C69.0029 9.48378 69.261 9.8801 69.7771 10.1566C70.2932 10.4147 71.0951 10.6819 72.1826 10.9584C73.2886 11.2349 74.2011 11.5207 74.92 11.8156C75.6389 12.1105 76.2564 12.5714 76.7725 13.1981C77.3071 13.8064 77.5836 14.6175 77.602 15.6313C77.602 16.5161 77.3532 17.3087 76.8555 18.0092C76.3762 18.7097 75.6758 19.2627 74.7541 19.6682C73.8509 20.0553 72.7909 20.2489 71.5743 20.2489Z" fill="#0680F5"/>
<path d="M1.688 36.848C1.976 36.3467 2.40267 35.9307 2.968 35.6C3.544 35.2587 4.21067 35.088 4.968 35.088C5.74667 35.088 6.45067 35.2747 7.08 35.648C7.72 36.0213 8.22133 36.5493 8.584 37.232C8.94667 37.904 9.128 38.688 9.128 39.584C9.128 40.4693 8.94667 41.2587 8.584 41.952C8.22133 42.6453 7.72 43.184 7.08 43.568C6.45067 43.952 5.74667 44.144 4.968 44.144C4.22133 44.144 3.56 43.9787 2.984 43.648C2.41867 43.3067 1.98667 42.8853 1.688 42.384V48.16H0.232V35.232H1.688V36.848ZM7.64 39.584C7.64 38.9227 7.50667 38.3467 7.24 37.856C6.97333 37.3653 6.61067 36.992 6.152 36.736C5.704 36.48 5.208 36.352 4.664 36.352C4.13067 36.352 3.63467 36.4853 3.176 36.752C2.728 37.008 2.36533 37.3867 2.088 37.888C1.82133 38.3787 1.688 38.9493 1.688 39.6C1.688 40.2613 1.82133 40.8427 2.088 41.344C2.36533 41.8347 2.728 42.2133 3.176 42.48C3.63467 42.736 4.13067 42.864 4.664 42.864C5.208 42.864 5.704 42.736 6.152 42.48C6.61067 42.2133 6.97333 41.8347 7.24 41.344C7.50667 40.8427 7.64 40.256 7.64 39.584ZM10.5005 39.584C10.5005 38.688 10.6818 37.904 11.0445 37.232C11.4072 36.5493 11.9032 36.0213 12.5325 35.648C13.1725 35.2747 13.8818 35.088 14.6605 35.088C15.4285 35.088 16.0952 35.2533 16.6605 35.584C17.2258 35.9147 17.6472 36.3307 17.9245 36.832V35.232H19.3965V44H17.9245V42.368C17.6365 42.88 17.2045 43.3067 16.6285 43.648C16.0632 43.9787 15.4018 44.144 14.6445 44.144C13.8658 44.144 13.1618 43.952 12.5325 43.568C11.9032 43.184 11.4072 42.6453 11.0445 41.952C10.6818 41.2587 10.5005 40.4693 10.5005 39.584ZM17.9245 39.6C17.9245 38.9387 17.7912 38.3627 17.5245 37.872C17.2578 37.3813 16.8952 37.008 16.4365 36.752C15.9885 36.4853 15.4925 36.352 14.9485 36.352C14.4045 36.352 13.9085 36.48 13.4605 36.736C13.0125 36.992 12.6552 37.3653 12.3885 37.856C12.1218 38.3467 11.9885 38.9227 11.9885 39.584C11.9885 40.256 12.1218 40.8427 12.3885 41.344C12.6552 41.8347 13.0125 42.2133 13.4605 42.48C13.9085 42.736 14.4045 42.864 14.9485 42.864C15.4925 42.864 15.9885 42.736 16.4365 42.48C16.8952 42.2133 17.2578 41.8347 17.5245 41.344C17.7912 40.8427 17.9245 40.2613 17.9245 39.6ZM22.609 33.808C22.3317 33.808 22.097 33.712 21.905 33.52C21.713 33.328 21.617 33.0933 21.617 32.816C21.617 32.5387 21.713 32.304 21.905 32.112C22.097 31.92 22.3317 31.824 22.609 31.824C22.8757 31.824 23.0997 31.92 23.281 32.112C23.473 32.304 23.569 32.5387 23.569 32.816C23.569 33.0933 23.473 33.328 23.281 33.52C23.0997 33.712 22.8757 33.808 22.609 33.808ZM23.313 35.232V44H21.857V35.232H23.313ZM30.0665 35.072C31.1332 35.072 31.9972 35.3973 32.6585 36.048C33.3198 36.688 33.6505 37.616 33.6505 38.832V44H32.2105V39.04C32.2105 38.1653 31.9918 37.4987 31.5545 37.04C31.1172 36.5707 30.5198 36.336 29.7625 36.336C28.9945 36.336 28.3812 36.576 27.9225 37.056C27.4745 37.536 27.2505 38.2347 27.2505 39.152V44H25.7945V35.232H27.2505V36.48C27.5385 36.032 27.9278 35.6853 28.4185 35.44C28.9198 35.1947 29.4692 35.072 30.0665 35.072ZM37.8049 36.432V41.6C37.8049 42.0267 37.8955 42.3307 38.0769 42.512C38.2582 42.6827 38.5729 42.768 39.0209 42.768H40.0929V44H38.7809C37.9702 44 37.3622 43.8133 36.9569 43.44C36.5515 43.0667 36.3489 42.4533 36.3489 41.6V36.432H35.2129V35.232H36.3489V33.024H37.8049V35.232H40.0929V36.432H37.8049ZM54.6826 44L53.2266 42.528C52.6826 43.0933 52.1013 43.5147 51.4826 43.792C50.864 44.0587 50.1653 44.192 49.3866 44.192C48.6186 44.192 47.936 44.0533 47.3386 43.776C46.752 43.4987 46.2933 43.104 45.9626 42.592C45.6426 42.08 45.4826 41.4827 45.4826 40.8C45.4826 40.0213 45.7013 39.3387 46.1386 38.752C46.5866 38.1547 47.2426 37.6853 48.1066 37.344C47.7653 36.9387 47.52 36.5653 47.3706 36.224C47.2213 35.8827 47.1466 35.5093 47.1466 35.104C47.1466 34.6347 47.264 34.2133 47.4986 33.84C47.744 33.456 48.0906 33.1573 48.5386 32.944C48.9866 32.7307 49.504 32.624 50.0906 32.624C50.6666 32.624 51.168 32.736 51.5946 32.96C52.0213 33.184 52.3413 33.4987 52.5546 33.904C52.768 34.2987 52.864 34.7413 52.8426 35.232H51.3866C51.3973 34.7947 51.2746 34.4533 51.0186 34.208C50.7626 33.952 50.432 33.824 50.0266 33.824C49.6 33.824 49.2533 33.9467 48.9866 34.192C48.7306 34.4267 48.6026 34.7307 48.6026 35.104C48.6026 35.424 48.688 35.7333 48.8586 36.032C49.04 36.3307 49.3386 36.6987 49.7546 37.136L53.0826 40.48L53.3706 40.032L54.4586 38.208H56.0266L54.7146 40.48C54.5333 40.8 54.32 41.136 54.0746 41.488L56.5866 44H54.6826ZM49.3866 42.944C49.9626 42.944 50.48 42.832 50.9386 42.608C51.408 42.384 51.8506 42.0373 52.2666 41.568L48.9866 38.272C47.6213 38.7947 46.9386 39.6213 46.9386 40.752C46.9386 41.3813 47.1626 41.904 47.6106 42.32C48.0693 42.736 48.6613 42.944 49.3866 42.944ZM63.6724 36.848C63.9604 36.3467 64.387 35.9307 64.9524 35.6C65.5284 35.2587 66.195 35.088 66.9524 35.088C67.731 35.088 68.435 35.2747 69.0644 35.648C69.7044 36.0213 70.2057 36.5493 70.5684 37.232C70.931 37.904 71.1124 38.688 71.1124 39.584C71.1124 40.4693 70.931 41.2587 70.5684 41.952C70.2057 42.6453 69.7044 43.184 69.0644 43.568C68.435 43.952 67.731 44.144 66.9524 44.144C66.2057 44.144 65.5444 43.9787 64.9684 43.648C64.403 43.3067 63.971 42.8853 63.6724 42.384V48.16H62.2164V35.232H63.6724V36.848ZM69.6244 39.584C69.6244 38.9227 69.491 38.3467 69.2244 37.856C68.9577 37.3653 68.595 36.992 68.1364 36.736C67.6884 36.48 67.1924 36.352 66.6484 36.352C66.115 36.352 65.619 36.4853 65.1604 36.752C64.7124 37.008 64.3497 37.3867 64.0724 37.888C63.8057 38.3787 63.6724 38.9493 63.6724 39.6C63.6724 40.2613 63.8057 40.8427 64.0724 41.344C64.3497 41.8347 64.7124 42.2133 65.1604 42.48C65.619 42.736 66.115 42.864 66.6484 42.864C67.1924 42.864 67.6884 42.736 68.1364 42.48C68.595 42.2133 68.9577 41.8347 69.2244 41.344C69.491 40.8427 69.6244 40.256 69.6244 39.584ZM74.4849 36.656C74.7409 36.1547 75.1035 35.7653 75.5729 35.488C76.0529 35.2107 76.6342 35.072 77.3169 35.072V36.576H76.9329C75.3009 36.576 74.4849 37.4613 74.4849 39.232V44H73.0289V35.232H74.4849V36.656ZM86.9976 39.28C86.9976 39.5573 86.9816 39.8507 86.9496 40.16H79.9416C79.995 41.024 80.2883 41.7013 80.8216 42.192C81.3656 42.672 82.0216 42.912 82.7896 42.912C83.419 42.912 83.9416 42.768 84.3576 42.48C84.7843 42.1813 85.083 41.7867 85.2536 41.296H86.8216C86.587 42.1387 86.1176 42.8267 85.4136 43.36C84.7096 43.8827 83.835 44.144 82.7896 44.144C81.9576 44.144 81.211 43.9573 80.5496 43.584C79.899 43.2107 79.387 42.6827 79.0136 42C78.6403 41.3067 78.4536 40.5067 78.4536 39.6C78.4536 38.6933 78.635 37.8987 78.9976 37.216C79.3603 36.5333 79.867 36.0107 80.5176 35.648C81.179 35.2747 81.9363 35.088 82.7896 35.088C83.6216 35.088 84.3576 35.2693 84.9976 35.632C85.6376 35.9947 86.1283 36.496 86.4696 37.136C86.8216 37.7653 86.9976 38.48 86.9976 39.28ZM85.4936 38.976C85.4936 38.4213 85.371 37.9467 85.1256 37.552C84.8803 37.1467 84.5443 36.8427 84.1176 36.64C83.7016 36.4267 83.2376 36.32 82.7256 36.32C81.9896 36.32 81.3603 36.5547 80.8376 37.024C80.3256 37.4933 80.0323 38.144 79.9576 38.976H85.4936ZM92.0235 44.144C91.3515 44.144 90.7488 44.032 90.2155 43.808C89.6822 43.5733 89.2608 43.2533 88.9515 42.848C88.6422 42.432 88.4715 41.9573 88.4395 41.424H89.9435C89.9862 41.8613 90.1888 42.2187 90.5515 42.496C90.9248 42.7733 91.4102 42.912 92.0075 42.912C92.5622 42.912 92.9995 42.7893 93.3195 42.544C93.6395 42.2987 93.7995 41.9893 93.7995 41.616C93.7995 41.232 93.6288 40.9493 93.2875 40.768C92.9462 40.576 92.4182 40.3893 91.7035 40.208C91.0528 40.0373 90.5195 39.8667 90.1035 39.696C89.6982 39.5147 89.3462 39.2533 89.0475 38.912C88.7595 38.56 88.6155 38.1013 88.6155 37.536C88.6155 37.088 88.7488 36.6773 89.0155 36.304C89.2822 35.9307 89.6608 35.6373 90.1515 35.424C90.6422 35.2 91.2022 35.088 91.8315 35.088C92.8022 35.088 93.5862 35.3333 94.1835 35.824C94.7808 36.3147 95.1008 36.9867 95.1435 37.84H93.6875C93.6555 37.3813 93.4688 37.0133 93.1275 36.736C92.7968 36.4587 92.3488 36.32 91.7835 36.32C91.2608 36.32 90.8448 36.432 90.5355 36.656C90.2262 36.88 90.0715 37.1733 90.0715 37.536C90.0715 37.824 90.1622 38.064 90.3435 38.256C90.5355 38.4373 90.7702 38.5867 91.0475 38.704C91.3355 38.8107 91.7302 38.9333 92.2315 39.072C92.8608 39.2427 93.3728 39.4133 93.7675 39.584C94.1622 39.744 94.4982 39.9893 94.7755 40.32C95.0635 40.6507 95.2128 41.0827 95.2235 41.616C95.2235 42.096 95.0902 42.528 94.8235 42.912C94.5568 43.296 94.1782 43.6 93.6875 43.824C93.2075 44.0373 92.6528 44.144 92.0235 44.144ZM100.383 44.144C99.7109 44.144 99.1082 44.032 98.5749 43.808C98.0415 43.5733 97.6202 43.2533 97.3109 42.848C97.0015 42.432 96.8309 41.9573 96.7989 41.424H98.3029C98.3455 41.8613 98.5482 42.2187 98.9109 42.496C99.2842 42.7733 99.7695 42.912 100.367 42.912C100.922 42.912 101.359 42.7893 101.679 42.544C101.999 42.2987 102.159 41.9893 102.159 41.616C102.159 41.232 101.988 40.9493 101.647 40.768C101.306 40.576 100.778 40.3893 100.063 40.208C99.4122 40.0373 98.8789 39.8667 98.4629 39.696C98.0575 39.5147 97.7055 39.2533 97.4069 38.912C97.1189 38.56 96.9749 38.1013 96.9749 37.536C96.9749 37.088 97.1082 36.6773 97.3749 36.304C97.6415 35.9307 98.0202 35.6373 98.5109 35.424C99.0015 35.2 99.5615 35.088 100.191 35.088C101.162 35.088 101.946 35.3333 102.543 35.824C103.14 36.3147 103.46 36.9867 103.503 37.84H102.047C102.015 37.3813 101.828 37.0133 101.487 36.736C101.156 36.4587 100.708 36.32 100.143 36.32C99.6202 36.32 99.2042 36.432 98.8949 36.656C98.5855 36.88 98.4309 37.1733 98.4309 37.536C98.4309 37.824 98.5215 38.064 98.7029 38.256C98.8949 38.4373 99.1295 38.5867 99.4069 38.704C99.6949 38.8107 100.09 38.9333 100.591 39.072C101.22 39.2427 101.732 39.4133 102.127 39.584C102.522 39.744 102.858 39.9893 103.135 40.32C103.423 40.6507 103.572 41.0827 103.583 41.616C103.583 42.096 103.45 42.528 103.183 42.912C102.916 43.296 102.538 43.6 102.047 43.824C101.567 44.0373 101.012 44.144 100.383 44.144ZM113.414 35.232V44H111.958V42.704C111.681 43.152 111.292 43.504 110.79 43.76C110.3 44.0053 109.756 44.128 109.158 44.128C108.476 44.128 107.862 43.9893 107.318 43.712C106.774 43.424 106.342 42.9973 106.022 42.432C105.713 41.8667 105.558 41.1787 105.558 40.368V35.232H106.998V40.176C106.998 41.04 107.217 41.7067 107.654 42.176C108.092 42.6347 108.689 42.864 109.446 42.864C110.225 42.864 110.838 42.624 111.286 42.144C111.734 41.664 111.958 40.9653 111.958 40.048V35.232H113.414ZM117.329 36.656C117.585 36.1547 117.947 35.7653 118.417 35.488C118.897 35.2107 119.478 35.072 120.161 35.072V36.576H119.777C118.145 36.576 117.329 37.4613 117.329 39.232V44H115.873V35.232H117.329V36.656ZM129.841 39.28C129.841 39.5573 129.825 39.8507 129.793 40.16H122.785C122.839 41.024 123.132 41.7013 123.665 42.192C124.209 42.672 124.865 42.912 125.633 42.912C126.263 42.912 126.785 42.768 127.201 42.48C127.628 42.1813 127.927 41.7867 128.097 41.296H129.665C129.431 42.1387 128.961 42.8267 128.257 43.36C127.553 43.8827 126.679 44.144 125.633 44.144C124.801 44.144 124.055 43.9573 123.393 43.584C122.743 43.2107 122.231 42.6827 121.857 42C121.484 41.3067 121.297 40.5067 121.297 39.6C121.297 38.6933 121.479 37.8987 121.841 37.216C122.204 36.5333 122.711 36.0107 123.361 35.648C124.023 35.2747 124.78 35.088 125.633 35.088C126.465 35.088 127.201 35.2693 127.841 35.632C128.481 35.9947 128.972 36.496 129.313 37.136C129.665 37.7653 129.841 38.48 129.841 39.28ZM128.337 38.976C128.337 38.4213 128.215 37.9467 127.969 37.552C127.724 37.1467 127.388 36.8427 126.961 36.64C126.545 36.4267 126.081 36.32 125.569 36.32C124.833 36.32 124.204 36.5547 123.681 37.024C123.169 37.4933 122.876 38.144 122.801 38.976H128.337ZM147.709 35.232L144.973 44H143.469L141.357 37.04L139.245 44H137.741L134.989 35.232H136.477L138.493 42.592L140.669 35.232H142.157L144.285 42.608L146.269 35.232H147.709ZM148.61 39.584C148.61 38.688 148.791 37.904 149.154 37.232C149.517 36.5493 150.013 36.0213 150.642 35.648C151.282 35.2747 151.991 35.088 152.77 35.088C153.538 35.088 154.205 35.2533 154.77 35.584C155.335 35.9147 155.757 36.3307 156.034 36.832V35.232H157.506V44H156.034V42.368C155.746 42.88 155.314 43.3067 154.738 43.648C154.173 43.9787 153.511 44.144 152.754 44.144C151.975 44.144 151.271 43.952 150.642 43.568C150.013 43.184 149.517 42.6453 149.154 41.952C148.791 41.2587 148.61 40.4693 148.61 39.584ZM156.034 39.6C156.034 38.9387 155.901 38.3627 155.634 37.872C155.367 37.3813 155.005 37.008 154.546 36.752C154.098 36.4853 153.602 36.352 153.058 36.352C152.514 36.352 152.018 36.48 151.57 36.736C151.122 36.992 150.765 37.3653 150.498 37.856C150.231 38.3467 150.098 38.9227 150.098 39.584C150.098 40.256 150.231 40.8427 150.498 41.344C150.765 41.8347 151.122 42.2133 151.57 42.48C152.018 42.736 152.514 42.864 153.058 42.864C153.602 42.864 154.098 42.736 154.546 42.48C155.005 42.2133 155.367 41.8347 155.634 41.344C155.901 40.8427 156.034 40.2613 156.034 39.6ZM163.07 44.144C162.398 44.144 161.796 44.032 161.262 43.808C160.729 43.5733 160.308 43.2533 159.998 42.848C159.689 42.432 159.518 41.9573 159.486 41.424H160.99C161.033 41.8613 161.236 42.2187 161.598 42.496C161.972 42.7733 162.457 42.912 163.054 42.912C163.609 42.912 164.046 42.7893 164.366 42.544C164.686 42.2987 164.846 41.9893 164.846 41.616C164.846 41.232 164.676 40.9493 164.334 40.768C163.993 40.576 163.465 40.3893 162.75 40.208C162.1 40.0373 161.566 39.8667 161.15 39.696C160.745 39.5147 160.393 39.2533 160.094 38.912C159.806 38.56 159.662 38.1013 159.662 37.536C159.662 37.088 159.796 36.6773 160.062 36.304C160.329 35.9307 160.708 35.6373 161.198 35.424C161.689 35.2 162.249 35.088 162.878 35.088C163.849 35.088 164.633 35.3333 165.23 35.824C165.828 36.3147 166.148 36.9867 166.19 37.84H164.734C164.702 37.3813 164.516 37.0133 164.174 36.736C163.844 36.4587 163.396 36.32 162.83 36.32C162.308 36.32 161.892 36.432 161.582 36.656C161.273 36.88 161.118 37.1733 161.118 37.536C161.118 37.824 161.209 38.064 161.39 38.256C161.582 38.4373 161.817 38.5867 162.094 38.704C162.382 38.8107 162.777 38.9333 163.278 39.072C163.908 39.2427 164.42 39.4133 164.814 39.584C165.209 39.744 165.545 39.9893 165.822 40.32C166.11 40.6507 166.26 41.0827 166.27 41.616C166.27 42.096 166.137 42.528 165.87 42.912C165.604 43.296 165.225 43.6 164.734 43.824C164.254 44.0373 163.7 44.144 163.07 44.144ZM172.678 35.072C173.339 35.072 173.936 35.216 174.47 35.504C175.003 35.7813 175.419 36.2027 175.718 36.768C176.027 37.3333 176.182 38.0213 176.182 38.832V44H174.742V39.04C174.742 38.1653 174.523 37.4987 174.086 37.04C173.648 36.5707 173.051 36.336 172.294 36.336C171.526 36.336 170.912 36.576 170.454 37.056C170.006 37.536 169.782 38.2347 169.782 39.152V44H168.326V32.16H169.782V36.48C170.07 36.032 170.464 35.6853 170.966 35.44C171.478 35.1947 172.048 35.072 172.678 35.072Z" fill="#FDFDFD"/>
</svg>
